<mxfile host="65bd71144e">
    <diagram name="PÃ¡gina-1" id="uFT8vUl30jBZi0xyiMv0">
        <mxGraphModel dx="1052" dy="773" grid="1" gridSize="10" guides="1" tooltips="1" connect="1" arrows="1" fold="1" page="1" pageScale="1" pageWidth="827" pageHeight="1169" math="0" shadow="0">
            <root>
                <mxCell id="0"/>
                <mxCell id="1" parent="0"/>
                <mxCell id="mC5z-mMraHbT_Dps2X1v-2" value="" style="edgeStyle=orthogonalEdgeStyle;rounded=0;orthogonalLoop=1;jettySize=auto;html=1;fontColor=#000000;" parent="1" source="pwGEhDZ0cCf_99FvV3OS-1" target="mC5z-mMraHbT_Dps2X1v-1" edge="1">
                    <mxGeometry relative="1" as="geometry"/>
                </mxCell>
                <mxCell id="pwGEhDZ0cCf_99FvV3OS-1" value="Routes" style="rounded=1;whiteSpace=wrap;html=1;fillColor=#d5e8d4;strokeColor=#82b366;fontColor=#000000;" parent="1" vertex="1">
                    <mxGeometry x="40" y="280" width="80" height="40" as="geometry"/>
                </mxCell>
                <mxCell id="pwGEhDZ0cCf_99FvV3OS-7" value="" style="edgeStyle=orthogonalEdgeStyle;rounded=0;orthogonalLoop=1;jettySize=auto;html=1;fontColor=#000000;" parent="1" source="pwGEhDZ0cCf_99FvV3OS-2" target="pwGEhDZ0cCf_99FvV3OS-6" edge="1">
                    <mxGeometry relative="1" as="geometry"/>
                </mxCell>
                <mxCell id="pwGEhDZ0cCf_99FvV3OS-2" value="Controllers" style="whiteSpace=wrap;html=1;rounded=1;fillColor=#d5e8d4;strokeColor=#82b366;fontColor=#000000;" parent="1" vertex="1">
                    <mxGeometry x="360" y="280" width="80" height="40" as="geometry"/>
                </mxCell>
                <mxCell id="pwGEhDZ0cCf_99FvV3OS-5" value="" style="edgeStyle=orthogonalEdgeStyle;rounded=0;orthogonalLoop=1;jettySize=auto;html=1;fontColor=#000000;" parent="1" source="pwGEhDZ0cCf_99FvV3OS-4" target="pwGEhDZ0cCf_99FvV3OS-2" edge="1">
                    <mxGeometry relative="1" as="geometry"/>
                </mxCell>
                <mxCell id="pwGEhDZ0cCf_99FvV3OS-10" value="" style="edgeStyle=orthogonalEdgeStyle;rounded=0;orthogonalLoop=1;jettySize=auto;html=1;fontColor=#000000;" parent="1" source="pwGEhDZ0cCf_99FvV3OS-9" target="pwGEhDZ0cCf_99FvV3OS-4" edge="1">
                    <mxGeometry relative="1" as="geometry"/>
                </mxCell>
                <mxCell id="pwGEhDZ0cCf_99FvV3OS-4" value="Adapters" style="whiteSpace=wrap;html=1;rounded=1;fillColor=#dae8fc;strokeColor=#6c8ebf;fontColor=#000000;" parent="1" vertex="1">
                    <mxGeometry x="360" y="170" width="80" height="40" as="geometry"/>
                </mxCell>
                <mxCell id="pwGEhDZ0cCf_99FvV3OS-15" value="" style="edgeStyle=orthogonalEdgeStyle;rounded=0;orthogonalLoop=1;jettySize=auto;html=1;fontColor=#000000;" parent="1" source="pwGEhDZ0cCf_99FvV3OS-14" target="pwGEhDZ0cCf_99FvV3OS-6" edge="1">
                    <mxGeometry relative="1" as="geometry"/>
                </mxCell>
                <mxCell id="pwGEhDZ0cCf_99FvV3OS-6" value="Use cases" style="whiteSpace=wrap;html=1;rounded=1;fillColor=#ffe6cc;strokeColor=#d79b00;fontColor=#000000;" parent="1" vertex="1">
                    <mxGeometry x="480" y="280" width="80" height="40" as="geometry"/>
                </mxCell>
                <mxCell id="pwGEhDZ0cCf_99FvV3OS-9" value="DB" style="ellipse;whiteSpace=wrap;html=1;rounded=1;fillColor=#dae8fc;strokeColor=#6c8ebf;fontColor=#000000;" parent="1" vertex="1">
                    <mxGeometry x="375" y="90" width="50" height="50" as="geometry"/>
                </mxCell>
                <mxCell id="pwGEhDZ0cCf_99FvV3OS-13" style="edgeStyle=orthogonalEdgeStyle;rounded=0;orthogonalLoop=1;jettySize=auto;html=1;exitX=0;exitY=0.5;exitDx=0;exitDy=0;entryX=1;entryY=0.5;entryDx=0;entryDy=0;fontColor=#000000;" parent="1" source="pwGEhDZ0cCf_99FvV3OS-11" target="pwGEhDZ0cCf_99FvV3OS-4" edge="1">
                    <mxGeometry relative="1" as="geometry">
                        <mxPoint x="520" y="150" as="targetPoint"/>
                    </mxGeometry>
                </mxCell>
                <mxCell id="pwGEhDZ0cCf_99FvV3OS-11" value="Entities" style="ellipse;whiteSpace=wrap;html=1;rounded=1;fillColor=#e1d5e7;strokeColor=#9673a6;fontColor=#000000;" parent="1" vertex="1">
                    <mxGeometry x="600" y="165" width="50" height="50" as="geometry"/>
                </mxCell>
                <mxCell id="pwGEhDZ0cCf_99FvV3OS-18" value="" style="edgeStyle=orthogonalEdgeStyle;rounded=0;orthogonalLoop=1;jettySize=auto;html=1;fontColor=#000000;" parent="1" source="pwGEhDZ0cCf_99FvV3OS-14" target="pwGEhDZ0cCf_99FvV3OS-11" edge="1">
                    <mxGeometry relative="1" as="geometry"/>
                </mxCell>
                <mxCell id="pwGEhDZ0cCf_99FvV3OS-14" value="DTO" style="ellipse;whiteSpace=wrap;html=1;rounded=1;fillColor=#e1d5e7;strokeColor=#9673a6;fontColor=#000000;" parent="1" vertex="1">
                    <mxGeometry x="600" y="275" width="50" height="50" as="geometry"/>
                </mxCell>
                <mxCell id="pwGEhDZ0cCf_99FvV3OS-21" value="" style="edgeStyle=orthogonalEdgeStyle;rounded=0;orthogonalLoop=1;jettySize=auto;html=1;entryX=0.75;entryY=1;entryDx=0;entryDy=0;exitX=0;exitY=0.5;exitDx=0;exitDy=0;fontColor=#000000;" parent="1" source="pwGEhDZ0cCf_99FvV3OS-19" target="pwGEhDZ0cCf_99FvV3OS-4" edge="1">
                    <mxGeometry relative="1" as="geometry">
                        <Array as="points">
                            <mxPoint x="493" y="230"/>
                            <mxPoint x="420" y="230"/>
                        </Array>
                    </mxGeometry>
                </mxCell>
                <mxCell id="pwGEhDZ0cCf_99FvV3OS-22" value="" style="edgeStyle=orthogonalEdgeStyle;rounded=0;orthogonalLoop=1;jettySize=auto;html=1;fontColor=#000000;" parent="1" source="pwGEhDZ0cCf_99FvV3OS-19" target="pwGEhDZ0cCf_99FvV3OS-6" edge="1">
                    <mxGeometry relative="1" as="geometry"/>
                </mxCell>
                <mxCell id="pwGEhDZ0cCf_99FvV3OS-19" value="Interface" style="ellipse;whiteSpace=wrap;html=1;aspect=fixed;fillColor=#e1d5e7;strokeColor=#9673a6;fontColor=#000000;" parent="1" vertex="1">
                    <mxGeometry x="492.5" y="200" width="55" height="55" as="geometry"/>
                </mxCell>
                <mxCell id="pwGEhDZ0cCf_99FvV3OS-23" value="" style="ellipse;whiteSpace=wrap;html=1;aspect=fixed;fillColor=#d5e8d4;strokeColor=#82b366;" parent="1" vertex="1">
                    <mxGeometry x="90" y="370" width="20" height="20" as="geometry"/>
                </mxCell>
                <mxCell id="pwGEhDZ0cCf_99FvV3OS-24" value="Interface" style="text;html=1;align=left;verticalAlign=middle;whiteSpace=wrap;rounded=0;" parent="1" vertex="1">
                    <mxGeometry x="120" y="371.88" width="140" height="16.25" as="geometry"/>
                </mxCell>
                <mxCell id="pwGEhDZ0cCf_99FvV3OS-25" value="" style="ellipse;whiteSpace=wrap;html=1;aspect=fixed;fillColor=#ffe6cc;strokeColor=#d79b00;" parent="1" vertex="1">
                    <mxGeometry x="210" y="370.01" width="20" height="20" as="geometry"/>
                </mxCell>
                <mxCell id="pwGEhDZ0cCf_99FvV3OS-26" value="Use cases" style="text;html=1;align=left;verticalAlign=middle;whiteSpace=wrap;rounded=0;" parent="1" vertex="1">
                    <mxGeometry x="240" y="371.26" width="140" height="17.5" as="geometry"/>
                </mxCell>
                <mxCell id="pwGEhDZ0cCf_99FvV3OS-27" value="" style="ellipse;whiteSpace=wrap;html=1;aspect=fixed;fillColor=#dae8fc;strokeColor=#6c8ebf;" parent="1" vertex="1">
                    <mxGeometry x="329" y="370.01" width="20" height="20" as="geometry"/>
                </mxCell>
                <mxCell id="pwGEhDZ0cCf_99FvV3OS-28" value="Infrastructure" style="text;html=1;align=left;verticalAlign=middle;whiteSpace=wrap;rounded=0;" parent="1" vertex="1">
                    <mxGeometry x="359" y="368.76" width="140" height="22.5" as="geometry"/>
                </mxCell>
                <mxCell id="pwGEhDZ0cCf_99FvV3OS-29" value="" style="ellipse;whiteSpace=wrap;html=1;aspect=fixed;fillColor=#e1d5e7;strokeColor=#9673a6;" parent="1" vertex="1">
                    <mxGeometry x="450" y="371.25" width="20" height="20" as="geometry"/>
                </mxCell>
                <mxCell id="pwGEhDZ0cCf_99FvV3OS-30" value="Domain" style="text;html=1;align=left;verticalAlign=middle;whiteSpace=wrap;rounded=0;" parent="1" vertex="1">
                    <mxGeometry x="480" y="370" width="140" height="22.5" as="geometry"/>
                </mxCell>
                <mxCell id="mC5z-mMraHbT_Dps2X1v-3" value="" style="edgeStyle=orthogonalEdgeStyle;rounded=0;orthogonalLoop=1;jettySize=auto;html=1;fontColor=#000000;" parent="1" source="mC5z-mMraHbT_Dps2X1v-1" target="pwGEhDZ0cCf_99FvV3OS-2" edge="1">
                    <mxGeometry relative="1" as="geometry"/>
                </mxCell>
                <mxCell id="mC5z-mMraHbT_Dps2X1v-12" value="" style="edgeStyle=orthogonalEdgeStyle;rounded=0;orthogonalLoop=1;jettySize=auto;html=1;entryX=1;entryY=0.5;entryDx=0;entryDy=0;fontColor=#000000;" parent="1" source="mC5z-mMraHbT_Dps2X1v-1" target="mC5z-mMraHbT_Dps2X1v-11" edge="1">
                    <mxGeometry relative="1" as="geometry"/>
                </mxCell>
                <mxCell id="mC5z-mMraHbT_Dps2X1v-1" value="Validations" style="rhombus;whiteSpace=wrap;html=1;fillColor=#d5e8d4;strokeColor=#82b366;rounded=1;fontColor=#000000;" parent="1" vertex="1">
                    <mxGeometry x="200" y="260" width="80" height="80" as="geometry"/>
                </mxCell>
                <mxCell id="mC5z-mMraHbT_Dps2X1v-13" value="" style="edgeStyle=orthogonalEdgeStyle;rounded=0;orthogonalLoop=1;jettySize=auto;html=1;entryX=0.5;entryY=0;entryDx=0;entryDy=0;exitX=0;exitY=0.5;exitDx=0;exitDy=0;fontColor=#000000;" parent="1" source="mC5z-mMraHbT_Dps2X1v-11" target="pwGEhDZ0cCf_99FvV3OS-1" edge="1">
                    <mxGeometry relative="1" as="geometry"/>
                </mxCell>
                <mxCell id="mC5z-mMraHbT_Dps2X1v-11" value="&lt;font&gt;Error handler&lt;/font&gt;" style="rounded=1;whiteSpace=wrap;html=1;fillColor=#d5e8d4;strokeColor=#82b366;fontColor=#000000;" parent="1" vertex="1">
                    <mxGeometry x="120" y="185" width="90" height="30" as="geometry"/>
                </mxCell>
            </root>
        </mxGraphModel>
    </diagram>
</mxfile>